<?xml version="1.0" standalone="no"?>
<!DOCTYPE svg PUBLIC "-//W3C//DTD SVG 20010904//EN"
 "http://www.w3.org/TR/2001/REC-SVG-20010904/DTD/svg10.dtd">
<svg version="1.0" xmlns="http://www.w3.org/2000/svg"
 width="1000.000000pt" height="629.000000pt" viewBox="0 0 1000.000000 629.000000"
 preserveAspectRatio="xMidYMid meet">

<g transform="translate(0.000000,629.000000) scale(0.100000,-0.100000)"
fill="#000000" stroke="none">
<path d="M10 3145 l0 -3135 4990 0 4990 0 0 3135 0 3135 -4990 0 -4990 0 0
-3135z m9840 0 l0 -2985 -4850 0 -4850 0 0 2985 0 2985 4850 0 4850 0 0 -2985z"/>
<path d="M450 3145 l0 -2695 4550 0 4550 0 0 2695 0 2695 -4550 0 -4550 0 0
-2695z m1393 2188 c-7 -181 -25 -1785 -20 -1790 19 -18 1885 -19 1903 0 6 6
-12 1390 -21 1690 l-5 167 485 0 485 0 0 -42 c0 -24 -11 -720 -25 -1548 -23
-1427 -23 -1540 -10 -2180 8 -371 15 -690 15 -707 l0 -33 -475 0 -474 0 5 97
c23 464 45 1755 30 1770 -7 7 -1623 5 -1778 -2 l-158 -8 0 -326 c0 -179 7
-569 15 -866 8 -297 15 -568 15 -602 l0 -63 -470 0 -470 0 0 48 c-1 26 9 329
22 674 l22 628 -22 1457 c-13 802 -23 1513 -22 1581 l0 122 478 0 478 0 -3
-67z m4391 50 c67 -234 117 -357 474 -1158 l379 -850 34 0 34 0 418 825 c315
619 437 871 492 1010 l73 185 486 3 c267 1 486 0 486 -2 0 -2 -354 -667 -786
-1477 l-786 -1474 -7 -145 c-4 -86 0 -359 10 -675 10 -291 19 -576 21 -633 l3
-102 -472 0 c-467 0 -473 0 -473 20 0 11 9 287 21 613 11 325 19 660 17 742
l-4 150 -693 1440 c-381 792 -704 1464 -717 1493 l-24 52 504 0 c472 0 505 -1
510 -17z"/>
</g>
</svg>
